# xmcd CD database file
#
# Track frame offsets:
#	150
#	5913
#	19300
#	33434
#	51026
#	75702
#	100663
#	119546
#	135106
#	152554
#	176689
#	196148
#	215498
#	236271
#	249385
#	264034
#
# Disc length: 3752 seconds
#
# Revision: 0
# Processed by: cddbd v1.5.2PL0 Copyright (c) Steve Scherf et al.
# Submitted via: CDex 1.70beta2
#
DISCID=c40ea610
DTITLE=Rick Nelson - The last time around CD 3
DYEAR=2010
DGENRE=Country
TTITLE0=Introduction (Live 01.02.1974)
TTITLE1=I don't want to be lonely tonight (Live 01.02.1974)
TTITLE2=Hello Mary Lou  (Live 01.02.1974)
TTITLE3=She belongs to me (Live 01.02.1974)
TTITLE4=My babe (Live 01.02.1974)
TTITLE5=The last time around (Live 01.02.1974)
TTITLE6=One night stand (Live 01.02.1974)
TTITLE7=Windfall (Live 01.02.1974)
TTITLE8=Louisiana man (Live 01.02.1974)
TTITLE9=Someone to love (Live 01.02.1974)
TTITLE10=Garden party (Live 01.02.1974)
TTITLE11=Honky tonk woman (Live 01.02.1974)
TTITLE12=Gypsy pilot (Live 01.02.1974)
TTITLE13=Traveling man (Live 01.02.1974)
TTITLE14=Easy to be free (Live 01.02.1974)
TTITLE15=My babe -reprise- (Live 01.02.1974)
EXTD=YEAR: 2010
EXTT0=
EXTT1=
EXTT2=
EXTT3=
EXTT4=
EXTT5=
EXTT6=
EXTT7=
EXTT8=
EXTT9=
EXTT10=
EXTT11=
EXTT12=
EXTT13=
EXTT14=
EXTT15=
PLAYORDER=
